<svg xmlns="http://www.w3.org/2000/svg" style="display: none;">
  <!-- ================= ERP Domain Icons ================= -->
  <symbol id="os-icon-home" viewBox="0 0 24 24">
    <path fill="currentColor" d="M10 20v-6h4v6h5v-8h3L12 3 2 12h3v8z"/>
  </symbol>
  <symbol id="os-icon-accounting" viewBox="0 0 24 24">
    <path fill="currentColor" d="M4 10h3v7H4zm6.5 0h3v7h-3zM2 22h20v-3H2zm15-12h3v7h-3zm-5-7L2 7v2h20V7z"/>
  </symbol>
  <symbol id="os-icon-sales" viewBox="0 0 24 24">
    <path fill="currentColor" d="M16 6l2.29 2.29-4.88 4.88-4-4L2 16.59 3.41 18l6-6 4 4 6.3-6.29L22 12V6z"/>
  </symbol>
  <symbol id="os-icon-crm" viewBox="0 0 24 24">
    <path fill="currentColor" d="M16 11c1.66 0 2.99-1.34 2.99-3S17.66 5 16 5c-1.66 0-3 1.34-3 3s1.34 3 3 3zm-8 0c1.66 0 2.99-1.34 2.99-3S9.66 5 8 5C6.34 5 5 6.34 5 8s1.34 3 3 3zm0 2c-2.33 0-7 1.17-7 3.5V19h14v-2.5c0-2.33-4.67-3.5-7-3.5zm8 0c-.29 0-.62.02-.97.05 1.16.84 1.97 1.97 1.97 3.45V19h6v-2.5c0-2.33-4.67-3.5-7-3.5z"/>
  </symbol>
  <symbol id="os-icon-buying" viewBox="0 0 24 24">
    <path fill="currentColor" d="M7 18c-1.1 0-1.99.9-1.99 2S5.9 22 7 22s2-.9 2-2-.9-2-2-2zM1 2v2h2l3.6 7.59-1.35 2.45c-.16.28-.25.61-.25.96 0 1.1.9 2 2 2h12v-2H7.42c-.14 0-.25-.11-.25-.25l.03-.12.9-1.63h7.45c.75 0 1.41-.41 1.75-1.03l3.58-6.49A1.003 1.003 0 0020 4H5.21l-.94-2H1zm16 16c-1.1 0-1.99.9-1.99 2s.89 2 1.99 2 2-.9 2-2-.9-2-2-2z"/>
  </symbol>
  <symbol id="os-icon-purchase" viewBox="0 0 24 24">
    <path fill="currentColor" d="M19 3H5c-1.11 0-2 .9-2 2v14c0 1.1.89 2 2 2h14c1.1 0 2-.9 2-2V5c0-1.1-.9-2-2-2zm-2 10h-4v4h-2v-4H7v-2h4V7h2v4h4v2z"/>
  </symbol>
  <symbol id="os-icon-inventory" viewBox="0 0 24 24">
    <path fill="currentColor" d="M20 2H4c-1 0-2 .9-2 2v3.01c0 .72.43 1.34 1 1.69V20c0 1.1 1.1 2 2 2h14c.9 0 2-.9 2-2V8.7c.57-.35 1-.97 1-1.69V4c0-1.1-1-2-2-2zm-5 12H9v-2h6v2zm5-7H4V4h16v3z"/>
  </symbol>
  <symbol id="os-icon-manufacturing" viewBox="0 0 24 24">
    <path fill="currentColor" d="M19.43 12.98c.04-.32.07-.64.07-.98s-.03-.66-.07-.98l2.11-1.65c.19-.15.24-.42.12-.64l-2-3.46c-.12-.22-.39-.3-.61-.22l-2.49 1c-.52-.4-1.08-.73-1.69-.98l-.38-2.65A.488.488 0 0014 2h-4c-.25 0-.46.18-.49.42l-.38 2.65c-.61.25-1.17.59-1.69.98l-2.49-1c-.23-.09-.49 0-.61.22l-2 3.46c-.13.22-.07.49.12.64l2.11 1.65c-.04.32-.07.65-.07.98s.03.66.07.98l-2.11 1.65c-.19.15-.24.42-.12.64l2 3.46c.12.22.39.3.61.22l2.49-1c.52.4 1.08.73 1.69.98l.38 2.65c.03.24.24.42.49.42h4c.25 0 .46-.18.49-.42l.38-2.65c.61-.25 1.17-.59 1.69-.98l2.49 1c.23.09.49 0 .61-.22l2-3.46c.12-.22.07-.49-.12-.64l-2.11-1.65zM12 15.5c-1.93 0-3.5-1.57-3.5-3.5s1.57-3.5 3.5-3.5 3.5 1.57 3.5 3.5-1.57 3.5-3.5 3.5z"/>
  </symbol>
  <symbol id="os-icon-projects" viewBox="0 0 24 24">
    <path fill="currentColor" d="M19 3H5c-1.1 0-2 .9-2 2v14c0 1.1.9 2 2 2h14c1.1 0 2-.9 2-2V5c0-1.1-.9-2-2-2zM9 17H7v-7h2v7zm4 0h-2V7h2v10zm4 0h-2v-4h2v4z"/>
  </symbol>
  <symbol id="os-icon-hr" viewBox="0 0 24 24">
    <path fill="currentColor" d="M20 6h-4V4c0-1.11-.89-2-2-2h-4c-1.11 0-2 .89-2 2v2H4c-1.11 0-1.99.89-1.99 2L2 19c0 1.11.89 2 2 2h16c1.11 0 2-.89 2-2V8c0-1.11-.89-2-2-2zm-6 0h-4V4h4v2z"/>
  </symbol>
  <symbol id="os-icon-employees" viewBox="0 0 24 24">
    <path fill="currentColor" d="M12 12c2.21 0 4-1.79 4-4s-1.79-4-4-4-4 1.79-4 4 1.79 4 4 4zm0 2c-2.67 0-8 1.34-8 4v2h16v-2c0-2.66-5.33-4-8-4z"/>
  </symbol>
  <symbol id="os-icon-assets" viewBox="0 0 24 24">
    <path fill="currentColor" d="M21 2H3c-1.1 0-2 .9-2 2v12c0 1.1.9 2 2 2h7l-2 3v1h8v-1l-2-3h7c1.1 0 2-.9 2-2V4c0-1.1-.9-2-2-2zm0 12H3V4h18v10z"/>
  </symbol>
  <symbol id="os-icon-pos" viewBox="0 0 24 24">
    <path fill="currentColor" d="M17 2H7c-1.1 0-2 .9-2 2v16c0 1.1.9 2 2 2h10c1.1 0 2-.9 2-2V4c0-1.1-.9-2-2-2zm0 18H7V4h10v16zm-8-3h6v2H9zm0-4h6v2H9zm0-4h6v2H9z"/>
  </symbol>
  <symbol id="os-icon-reports" viewBox="0 0 24 24">
    <path fill="currentColor" d="M19 3H5c-1.1 0-2 .9-2 2v14c0 1.1.9 2 2 2h14c1.1 0 2-.9 2-2V5c0-1.1-.9-2-2-2zm-7 14l-5-5 1.41-1.41L12 14.17l7.59-7.59L21 8l-9 9z"/>
  </symbol>
  <symbol id="os-icon-documents" viewBox="0 0 24 24">
    <path fill="currentColor" d="M14 2H6c-1.1 0-1.99.9-1.99 2L4 20c0 1.1.89 2 1.99 2H18c1.1 0 2-.9 2-2V8l-6-6zm2 16H8v-2h8v2zm0-4H8v-2h8v2zm-3-5V3.5L18.5 9H13z"/>
  </symbol>
  <symbol id="os-icon-contacts" viewBox="0 0 24 24">
    <path fill="currentColor" d="M20 0H4v2h16V0zM4 24h16v-2H4v2zM20 4H4c-1.1 0-2 .9-2 2v12c0 1.1.9 2 2 2h16c1.1 0 2-.9 2-2V6c0-1.1-.9-2-2-2zm-8 2.75c1.24 0 2.25 1.01 2.25 2.25s-1.01 2.25-2.25 2.25S9.75 10.24 9.75 9 10.76 6.75 12 6.75zM17 17H7v-1.5c0-1.67 3.33-2.5 5-2.5s5 .83 5 2.5V17z"/>
  </symbol>
  <symbol id="os-icon-calendar" viewBox="0 0 24 24">
    <path fill="currentColor" d="M19 4h-1V2h-2v2H8V2H6v2H5c-1.11 0-1.99.9-1.99 2L3 20c0 1.1.89 2 2 2h14c1.1 0 2-.9 2-2V6c0-1.1-.9-2-2-2zm0 16H5V10h14v10z"/>
  </symbol>
  <symbol id="os-icon-tasks" viewBox="0 0 24 24">
    <path fill="currentColor" d="M19 3H5c-1.1 0-2 .9-2 2v14c0 1.1.9 2 2 2h14c1.1 0 2-.9 2-2V5c0-1.1-.9-2-2-2zm-9 14l-5-5 1.41-1.41L10 14.17l7.59-7.59L19 8l-9 9z"/>
  </symbol>
  <symbol id="os-icon-timesheets" viewBox="0 0 24 24">
    <path fill="currentColor" d="M11.99 2C6.47 2 2 6.48 2 12s4.47 10 9.99 10C17.52 22 22 17.52 22 12S17.52 2 11.99 2zM12 20c-4.42 0-8-3.58-8-8s3.58-8 8-8 8 3.58 8 8-3.58 8-8 8zm.5-13H11v6l5.25 3.15.75-1.23-4.5-2.67z"/>
  </symbol>
  <symbol id="os-icon-settings" viewBox="0 0 24 24">
    <path fill="currentColor" d="M19.14 12.94c.04-.3.06-.61.06-.94 0-.32-.02-.64-.07-.94l2.03-1.58c.18-.14.23-.41.12-.61l-1.92-3.32c-.12-.22-.37-.29-.59-.22l-2.39.96c-.5-.38-1.03-.7-1.62-.94l-.36-2.54c-.04-.24-.24-.41-.48-.41h-3.84c-.24 0-.43.17-.47.41l-.36 2.54c-.59.24-1.13.57-1.62.94l-2.39-.96c-.22-.08-.47 0-.59.22L2.74 8.87c-.12.21-.08.47.12.61l2.03 1.58c-.05.3-.09.63-.09.94s.02.64.07.94l-2.03 1.58c-.18.14-.23.41-.12.61l1.92 3.32c.12.22.37.29.59.22l2.39-.96c.5.38 1.03.7 1.62.94l.36 2.54c.05.24.24.41.48.41h3.84c.24 0 .44-.17.47-.41l.36-2.54c.59-.24 1.13-.56 1.62-.94l2.39.96c.22.08.47 0 .59-.22l1.92-3.32c.12-.22.07-.47-.12-.61l-2.01-1.58zM12 15.6c-1.98 0-3.6-1.62-3.6-3.6s1.62-3.6 3.6-3.6 3.6 1.62 3.6 3.6-1.62 3.6-3.6 3.6z"/>
  </symbol>
  <symbol id="os-icon-users" viewBox="0 0 24 24">
    <path fill="currentColor" d="M12 12c2.21 0 4-1.79 4-4s-1.79-4-4-4-4 1.79-4 4 1.79 4 4 4zm0 2c-2.67 0-8 1.34-8 4v2h16v-2c0-2.66-5.33-4-8-4z"/>
  </symbol>
  <symbol id="os-icon-customers" viewBox="0 0 24 24">
    <path fill="currentColor" d="M16 11c1.66 0 2.99-1.34 2.99-3S17.66 5 16 5c-1.66 0-3 1.34-3 3s1.34 3 3 3zm-8 0c1.66 0 2.99-1.34 2.99-3S9.66 5 8 5C6.34 5 5 6.34 5 8s1.34 3 3 3zm0 2c-2.33 0-7 1.17-7 3.5V19h14v-2.5c0-2.33-4.67-3.5-7-3.5zm8 0c-.29 0-.62.02-.97.05 1.16.84 1.97 1.97 1.97 3.45V19h6v-2.5c0-2.33-4.67-3.5-7-3.5z"/>
  </symbol>
  <symbol id="os-icon-suppliers" viewBox="0 0 24 24">
    <path fill="currentColor" d="M20 8h-3V4H3c-1.1 0-2 .9-2 2v11h2c0 1.66 1.34 3 3 3s3-1.34 3-3h6c0 1.66 1.34 3 3 3s3-1.34 3-3h2v-5l-3-4zM6 18.5c-.83 0-1.5-.67-1.5-1.5s.67-1.5 1.5-1.5 1.5.67 1.5 1.5-.67 1.5-1.5 1.5zm13.5-9l1.96 2.5H17V9.5h2.5zm-1.5 9c-.83 0-1.5-.67-1.5-1.5s.67-1.5 1.5-1.5 1.5.67 1.5 1.5-.67 1.5-1.5 1.5z"/>
  </symbol>
  <symbol id="os-icon-items" viewBox="0 0 24 24">
    <path fill="currentColor" d="M12 2l-5.5 9h11zM3.5 13.5l7.5 7.5 7.5-7.5z"/>
  </symbol>
  <symbol id="os-icon-payments" viewBox="0 0 24 24">
    <path fill="currentColor" d="M21 18v1c0 1.1-.9 2-2 2H5c-1.11 0-2-.9-2-2V5c0-1.1.89-2 2-2h14c1.1 0 2 .9 2 2v1h-9c-1.11 0-2 .9-2 2v8c0 1.1.89 2 2 2h9zm-9-2h10V8H12v8zm4-2.5c-.83 0-1.5-.67-1.5-1.5s.67-1.5 1.5-1.5 1.5.67 1.5 1.5-.67 1.5-1.5 1.5z"/>
  </symbol>
  <symbol id="os-icon-invoices" viewBox="0 0 24 24">
    <path fill="currentColor" d="M19 3H5c-1.1 0-2 .9-2 2v14c0 1.1.9 2 2 2h14c1.1 0 2-.9 2-2V5c0-1.1-.9-2-2-2zm-7 14l-5-5 1.41-1.41L12 14.17l7.59-7.59L21 8l-9 9z"/>
  </symbol>
  <symbol id="os-icon-quotations" viewBox="0 0 24 24">
    <path fill="currentColor" d="M6 17h3l2-4V7H5v6h3zm8 0h3l2-4V7h-6v6h3z"/>
  </symbol>
  <symbol id="os-icon-orders" viewBox="0 0 24 24">
    <path fill="currentColor" d="M19 3h-4.18C14.4 1.84 13.3 1 12 1c-1.3 0-2.4.84-2.82 2H5c-1.1 0-2 .9-2 2v14c0 1.1.9 2 2 2h14c1.1 0 2-.9 2-2V5c0-1.1-.9-2-2-2zm-7 0c.55 0 1 .45 1 1s-.45 1-1 1-1-.45-1-1 .45-1 1-1zm2 14H7v-2h7v2zm3-4H7v-2h10v2zm0-4H7V7h10v2z"/>
  </symbol>
  <symbol id="os-icon-warehouses" viewBox="0 0 24 24">
    <path fill="currentColor" d="M22 21H2V7l10-5 10 5v14zm-11-2h2v-4h-2v4zm-4 0h2v-4H7v4zm8 0h2v-4h-2v4z"/>
  </symbol>
  <symbol id="os-icon-stock" viewBox="0 0 24 24">
    <path fill="currentColor" d="M19 3H5c-1.1 0-2 .9-2 2v14c0 1.1.9 2 2 2h14c1.1 0 2-.9 2-2V5c0-1.1-.9-2-2-2zm-8 14H7v-4h4v4zm0-6H7V7h4v4zm6 6h-4v-8h4v8z"/>
  </symbol>
  <symbol id="os-icon-general-ledger" viewBox="0 0 24 24">
    <path fill="currentColor" d="M18 2H6c-1.1 0-2 .9-2 2v16c0 1.1.9 2 2 2h12c1.1 0 2-.9 2-2V4c0-1.1-.9-2-2-2zM6 4h5v8l-2.5-1.5L6 12V4z"/>
  </symbol>
  <symbol id="os-icon-chart-of-accounts" viewBox="0 0 24 24">
    <path fill="currentColor" d="M22 11V3h-7v3H9V3H2v8h7V8h2v10h4v3h7v-8h-7v3h-2V8h2v3z"/>
  </symbol>
  <symbol id="os-icon-taxes" viewBox="0 0 24 24">
    <path fill="currentColor" d="M7 11h2v2H7zm0 4h2v2H7zm4-4h2v2h-2zm0 4h2v2h-2zm4-4h2v2h-2zm0 4h2v2h-2zM5 21h14c1.1 0 2-.9 2-2V5c0-1.1-.9-2-2-2H5c-1.1 0-2 .9-2 2v14c0 1.1.9 2 2 2zM5 5h14v14H5z"/>
  </symbol>
  <symbol id="os-icon-bank" viewBox="0 0 24 24">
    <path fill="currentColor" d="M4 10h3v7H4zm6.5 0h3v7h-3zM2 22h20v-3H2zm15-12h3v7h-3zm-5-7L2 7v2h20V7z"/>
  </symbol>
  <symbol id="os-icon-dashboard" viewBox="0 0 24 24">
    <path fill="currentColor" d="M3 13h8V3H3v10zm0 8h8v-6H3v6zm10 0h8V11h-8v10zm0-18v6h8V3h-8z"/>
  </symbol>
  <symbol id="os-icon-integrations" viewBox="0 0 24 24">
    <path fill="currentColor" d="M17 7h-4v2h4c1.65 0 3 1.35 3 3s-1.35 3-3 3h-4v2h4c2.76 0 5-2.24 5-5s-2.24-5-5-5zm-6 8H7c-1.65 0-3-1.35-3-3s1.35-3 3-3h4V7H7c-2.76 0-5 2.24-5 5s2.24 5 5 5h4v-2zm-3-4h8v2H8z"/>
  </symbol>
  <symbol id="os-icon-notifications" viewBox="0 0 24 24">
    <path fill="currentColor" d="M12 22c1.1 0 2-.9 2-2h-4c0 1.1.89 2 2 2zm6-6v-5c0-3.07-1.64-5.64-4.5-6.32V4c0-.83-.67-1.5-1.5-1.5s-1.5.67-1.5 1.5v.68C7.63 5.36 6 7.92 6 11v5l-2 2v1h16v-1l-2-2z"/>
  </symbol>
  <symbol id="os-icon-search" viewBox="0 0 24 24">
    <path fill="currentColor" d="M15.5 14h-.79l-.28-.27A6.471 6.471 0 0016 9.5 6.5 6.5 0 109.5 16c1.61 0 3.09-.59 4.23-1.57l.27.28v.79l5 4.99L20.49 19l-4.99-5zm-6 0C7.01 14 5 11.99 5 9.5S7.01 5 9.5 5 14 7.01 14 9.5 11.99 14 9.5 14z"/>
  </symbol>
  <symbol id="os-icon-help" viewBox="0 0 24 24">
    <path fill="currentColor" d="M12 2C6.48 2 2 6.48 2 12s4.48 10 10 10 10-4.48 10-10S17.52 2 12 2zm1 16h-2v-2h2v2zm1.07-7.75l-.9.92C12.45 11.9 12 12.5 12 14h-2v-.5c0-1.1.45-2.1 1.17-2.83l1.24-1.26c.37-.36.59-.86.59-1.41 0-1.1-.9-2-2-2s-2 .9-2 2H7c0-2.76 2.24-5 5-5s5 2.24 5 5c0 1.04-.42 1.99-1.07 2.75z"/>
  </symbol>
  <symbol id="os-icon-profile" viewBox="0 0 24 24">
    <path fill="currentColor" d="M12 2C6.48 2 2 6.48 2 12s4.48 10 10 10 10-4.48 10-10S17.52 2 12 2zm0 3c1.66 0 3 1.34 3 3s-1.34 3-3 3-3-1.34-3-3 1.34-3 3-3zm0 14.2c-2.5 0-4.71-1.28-6-3.22.03-1.99 4-3.08 6-3.08 1.99 0 5.97 1.09 6 3.08-1.29 1.94-3.5 3.22-6 3.22z"/>
  </symbol>
  <symbol id="os-icon-logout" viewBox="0 0 24 24">
    <path fill="currentColor" d="M17 7l-1.41 1.41L18.17 11H8v2h10.17l-2.58 2.58L17 17l5-5zM4 5h8V3H4c-1.1 0-2 .9-2 2v14c0 1.1.9 2 2 2h8v-2H4V5z"/>
  </symbol>
  <symbol id="os-icon-more" viewBox="0 0 24 24">
    <path fill="currentColor" d="M12 8c1.1 0 2-.9 2-2s-.9-2-2-2-2 .9-2 2 .9 2 2 2zm0 2c-1.1 0-2 .9-2 2s.9 2 2 2 2-.9 2-2-.9-2-2-2zm0 6c-1.1 0-2 .9-2 2s.9 2 2 2 2-.9 2-2-.9-2-2-2z"/>
  </symbol>

  <!-- ================= Reusable Action Icons ================= -->
  <symbol id="os-icon-add" viewBox="0 0 24 24">
    <path fill="currentColor" d="M19 13h-6v6h-2v-6H5v-2h6V5h2v6h6v2z"/>
  </symbol>
  <symbol id="os-icon-edit" viewBox="0 0 24 24">
    <path fill="currentColor" d="M3 17.25V21h3.75L17.81 9.94l-3.75-3.75L3 17.25zM20.71 7.04c.39-.39.39-1.02 0-1.41l-2.34-2.34c-.39-.39-1.02-.39-1.41 0l-1.83 1.83 3.75 3.75 1.83-1.83z"/>
  </symbol>
  <symbol id="os-icon-save" viewBox="0 0 24 24">
    <path fill="currentColor" d="M17 3H5c-1.11 0-2 .9-2 2v14c0 1.1.89 2 2 2h14c1.1 0 2-.9 2-2V7l-4-4zm-5 16c-1.66 0-3-1.34-3-3s1.34-3 3-3 3 1.34 3 3-1.34 3-3 3zm3-10H5V5h10v4z"/>
  </symbol>
  <symbol id="os-icon-delete" viewBox="0 0 24 24">
    <path fill="currentColor" d="M6 19c0 1.1.9 2 2 2h8c1.1 0 2-.9 2-2V7H6v12zM19 4h-3.5l-1-1h-5l-1 1H5v2h14V4z"/>
  </symbol>
  <symbol id="os-icon-duplicate" viewBox="0 0 24 24">
    <path fill="currentColor" d="M16 1H4c-1.1 0-2 .9-2 2v14h2V3h12V1zm3 4H8c-1.1 0-2 .9-2 2v14c0 1.1.9 2 2 2h11c1.1 0 2-.9 2-2V7c0-1.1-.9-2-2-2zm0 16H8V7h11v14z"/>
  </symbol>
  <symbol id="os-icon-copy" viewBox="0 0 24 24">
    <path fill="currentColor" d="M16 1H4c-1.1 0-2 .9-2 2v14h2V3h12V1zm3 4H8c-1.1 0-2 .9-2 2v14c0 1.1.9 2 2 2h11c1.1 0 2-.9 2-2V7c0-1.1-.9-2-2-2zm0 16H8V7h11v14z"/>
  </symbol>
  <symbol id="os-icon-import" viewBox="0 0 24 24">
    <path fill="currentColor" d="M19 9h-4V3H9v6H5l7 7 7-7zM5 18v2h14v-2H5z"/>
  </symbol>
  <symbol id="os-icon-export" viewBox="0 0 24 24">
    <path fill="currentColor" d="M9 16h6v-6h4l-7-7-7 7h4zm-4 2h14v2H5z"/>
  </symbol>
  <symbol id="os-icon-download" viewBox="0 0 24 24">
    <path fill="currentColor" d="M19 9h-4V3H9v6H5l7 7 7-7zM5 18v2h14v-2H5z"/>
  </symbol>
  <symbol id="os-icon-upload" viewBox="0 0 24 24">
    <path fill="currentColor" d="M9 16h6v-6h4l-7-7-7 7h4zm-4 2h14v2H5z"/>
  </symbol>
  <symbol id="os-icon-print" viewBox="0 0 24 24">
    <path fill="currentColor" d="M19 8H5c-1.66 0-3 1.34-3 3v6h4v4h12v-4h4v-6c0-1.66-1.34-3-3-3zm-3 11H8v-5h8v5zm3-7c-.55 0-1-.45-1-1s.45-1 1-1 1 .45 1 1-.45 1-1 1zm-1-9H6v4h12V3z"/>
  </symbol>
  <symbol id="os-icon-filter" viewBox="0 0 24 24">
    <path fill="currentColor" d="M10 18h4v-2h-4v2zM3 6v2h18V6H3zm3 7h12v-2H6v2z"/>
  </symbol>
  <symbol id="os-icon-sort" viewBox="0 0 24 24">
    <path fill="currentColor" d="M3 18h6v-2H3v2zM3 6v2h18V6H3zm0 7h12v-2H3v2z"/>
  </symbol>
  <symbol id="os-icon-refresh" viewBox="0 0 24 24">
    <path fill="currentColor" d="M17.65 6.35A7.958 7.958 0 0012 4c-4.42 0-7.99 3.58-7.99 8s3.57 8 7.99 8c3.73 0 6.84-2.55 7.73-6h-2.08A5.99 5.99 0 0112 18c-3.31 0-6-2.69-6-6s2.69-6 6-6c1.66 0 3.14.69 4.22 1.78L13 11h7V4l-2.35 2.35z"/>
  </symbol>
  <symbol id="os-icon-expand" viewBox="0 0 24 24">
    <path fill="currentColor" d="M12 8l-6 6 1.41 1.41L12 10.83l4.59 4.58L18 14z"/>
  </symbol>
  <symbol id="os-icon-collapse" viewBox="0 0 24 24">
    <path fill="currentColor" d="M16.59 8.59L12 13.17 7.41 8.59 6 10l6 6 6-6z"/>
  </symbol>
  <symbol id="os-icon-fullscreen" viewBox="0 0 24 24">
    <path fill="currentColor" d="M7 14H5v5h5v-2H7v-3zm-2-4h2V7h3V5H5v5zm12 7h-3v2h5v-5h-2v3zM14 5v2h3v3h2V5h-5z"/>
  </symbol>
  <symbol id="os-icon-link" viewBox="0 0 24 24">
    <path fill="currentColor" d="M3.9 12c0-1.71 1.39-3.1 3.1-3.1h4V7H7c-2.76 0-5 2.24-5 5s2.24 5 5 5h4v-1.9H7c-1.71 0-3.1-1.39-3.1-3.1zM8 13h8v-2H8v2zm9-6h-4v1.9h4c1.71 0 3.1 1.39 3.1 3.1s-1.39 3.1-3.1 3.1h-4V17h4c2.76 0 5-2.24 5-5s-2.24-5-5-5z"/>
  </symbol>
  <symbol id="os-icon-attach" viewBox="0 0 24 24">
    <path fill="currentColor" d="M16.5 6v11.5c0 2.21-1.79 4-4 4s-4-1.79-4-4V5c0-1.38 1.12-2.5 2.5-2.5s2.5 1.12 2.5 2.5v10.5c0 .55-.45 1-1 1s-1-.45-1-1V6H10v9.5c0 1.38 1.12 2.5 2.5 2.5s2.5-1.12 2.5-2.5V5c0-2.21-1.79-4-4-4s-4 1.79-4 4v12.5c0 3.04 2.46 5.5 5.5 5.5s5.5-2.46 5.5-5.5V6h-1.5z"/>
  </symbol>
  <symbol id="os-icon-clock" viewBox="0 0 24 24">
    <path fill="currentColor" d="M11.99 2C6.47 2 2 6.48 2 12s4.47 10 9.99 10C17.52 22 22 17.52 22 12S17.52 2 11.99 2zM12 20c-4.42 0-8-3.58-8-8s3.58-8 8-8 8 3.58 8 8-3.58 8-8 8zm.5-13H11v6l5.25 3.15.75-1.23-4.5-2.67z"/>
  </symbol>
  <symbol id="os-icon-warning" viewBox="0 0 24 24">
    <path fill="currentColor" d="M1 21h22L12 2 1 21zm12-3h-2v-2h2v2zm0-4h-2v-4h2v4z"/>
  </symbol>
  <symbol id="os-icon-error" viewBox="0 0 24 24">
    <path fill="currentColor" d="M12 2C6.48 2 2 6.48 2 12s4.48 10 10 10 10-4.48 10-10S17.52 2 12 2zm1 15h-2v-2h2v2zm0-4h-2V7h2v6z"/>
  </symbol>
  <symbol id="os-icon-success" viewBox="0 0 24 24">
    <path fill="currentColor" d="M12 2C6.48 2 2 6.48 2 12s4.48 10 10 10 10-4.48 10-10S17.52 2 12 2zm-2 15l-5-5 1.41-1.41L10 14.17l7.59-7.59L19 8l-9 9z"/>
  </symbol>
  <symbol id="os-icon-info" viewBox="0 0 24 24">
    <path fill="currentColor" d="M12 2C6.48 2 2 6.48 2 12s4.48 10 10 10 10-4.48 10-10S17.52 2 12 2zm1 15h-2v-6h2v6zm0-8h-2V7h2v2z"/>
  </symbol>
  <symbol id="os-icon-lock" viewBox="0 0 24 24">
    <path fill="currentColor" d="M18 8h-1V6c0-2.76-2.24-5-5-5S7 3.24 7 6v2H6c-1.1 0-2 .9-2 2v10c0 1.1.9 2 2 2h12c1.1 0 2-.9 2-2V10c0-1.1-.9-2-2-2zm-6 9c-1.1 0-2-.9-2-2s.9-2 2-2 2 .9 2 2-.9 2-2 2zm3.1-9H8.9V6c0-1.71 1.39-3.1 3.1-3.1 1.71 0 3.1 1.39 3.1 3.1v2z"/>
  </symbol>
  <symbol id="os-icon-unlock" viewBox="0 0 24 24">
    <path fill="currentColor" d="M12 17c1.1 0 2-.9 2-2s-.9-2-2-2-2 .9-2 2 .9 2 2 2zm6-9h-1V6c0-2.76-2.24-5-5-5-2.28 0-4.27 1.54-4.84 3.75l1.94.52C10.5 3.78 11.66 3 13 3c1.65 0 3 1.35 3 3v2H6c-1.1 0-2 .9-2 2v10c0 1.1.9 2 2 2h12c1.1 0 2-.9 2-2V10c0-1.1-.9-2-2-2zm0 12H6V10h12v10z"/>
  </symbol>
  <symbol id="os-icon-visibility" viewBox="0 0 24 24">
    <path fill="currentColor" d="M12 4.5C7 4.5 2.73 7.61 1 12c1.73 4.39 6 7.5 11 7.5s9.27-3.11 11-7.5c-1.73-4.39-6-7.5-11-7.5zM12 17c-2.76 0-5-2.24-5-5s2.24-5 5-5 5 2.24 5 5-2.24 5-5 5zm0-8c-1.66 0-3 1.34-3 3s1.34 3 3 3 3-1.34 3-3-1.34-3-3-3z"/>
  </symbol>
  <symbol id="os-icon-visibility-off" viewBox="0 0 24 24">
    <path fill="currentColor" d="M12 7c2.76 0 5 2.24 5 5 0 .65-.13 1.26-.36 1.83l2.92 2.92c1.51-1.26 2.7-2.89 3.44-4.75-1.73-4.39-6-7.5-11-7.5-1.4 0-2.74.25-3.98.7l2.16 2.16C10.74 7.13 11.35 7 12 7zM2 4.27l2.28 2.28.46.46C3.08 8.3 1.78 10.02 1 12c1.73 4.39 6 7.5 11 7.5 1.55 0 3.03-.3 4.38-.84l.42.42L19.73 22 21 20.73 3.27 3 2 4.27zM7.53 9.8l1.55 1.55c-.05.21-.08.43-.08.65 0 1.66 1.34 3 3 3 .22 0 .44-.03.65-.08l1.55 1.55c-.67.33-1.41.53-2.2.53-2.76 0-5-2.24-5-5 0-.79.2-1.53.53-2.2zm4.31-.78l3.15 3.15.02-.16c0-1.66-1.34-3-3-3l-.17.01z"/>
  </symbol>
  <symbol id="os-icon-comments" viewBox="0 0 24 24">
    <path fill="currentColor" d="M21.99 4c0-1.1-.89-2-1.99-2H4c-1.1 0-2 .9-2 2v12c0 1.1.9 2 2 2h14l4 4-.01-18zM18 14H6v-2h12v2zm0-3H6V9h12v2zm0-3H6V6h12v2z"/>
  </symbol>
  <symbol id="os-icon-activity" viewBox="0 0 24 24">
    <path fill="currentColor" d="M12 2C6.48 2 2 6.48 2 12s4.48 10 10 10 10-4.48 10-10S17.52 2 12 2zm1 14H7v-2h6v2zm3-4H7v-2h9v2zm0-4H7V6h9v2z"/>
  </symbol>
</svg>
